# xmcd CD database file
#
# Track frame offsets:
#	150
#	28644
#	47210
#	90325
#	96722
#	130987
#	190732
#	229346
#
# Disc length: 3286 seconds
#
# Revision: 0
# Processed by: cddbd v1.5.2PL0 Copyright (c) Steve Scherf et al.
# Submitted via: CDex 1.70beta2
#
DISCID=690cd408
DTITLE=Eichinger Quartet - Pastel Rainbow Over The Balkans
DYEAR=2006
DGENRE=Jazz
TTITLE0=Marmot Blues
TTITLE1=Pont du Gard
TTITLE2=Moulin Dance
TTITLE3=Japaneese Robot Flower
TTITLE4=Pastel Rainbow Over The Balkans
TTITLE5=Green Macadam Road
TTITLE6=The Absinthe-drinkers' Song
TTITLE7=Mountain-air
EXTD=YEAR: 2006
EXTT0=
EXTT1=
EXTT2=
EXTT3=
EXTT4=
EXTT5=
EXTT6=
EXTT7=
PLAYORDER=
